<svg width="43" height="39" viewBox="0 0 43 39" fill="none" xmlns="http://www.w3.org/2000/svg">
<path d="M37.3008 2.5V0V2.5ZM39.4082 2.71777L40.5432 0.490257L40.5429 0.490095L39.4082 2.71777ZM40.2822 3.5918L42.5097 2.45682L42.5096 2.45658L40.2822 3.5918ZM40.5 5.7002H38H40.5ZM40.4727 14.96L42.6989 16.0974L42.7002 16.0949L40.4727 14.96ZM40.3643 15.0693L41.4992 17.2969L41.5016 17.2956L40.3643 15.0693ZM40.1006 15.0967V17.5967V17.5967V15.0967ZM38.5303 15.0967V17.5967V15.0967ZM36.9727 15.1748L36.4049 12.7401L36.4044 12.7402L36.9727 15.1748ZM34.7324 17.4141L32.2979 16.8455L32.2979 16.8458L34.7324 17.4141ZM34.6543 18.9727H32.1543H34.6543ZM34.9814 22.1787L32.7539 23.3136L32.7539 23.3137L34.9814 22.1787ZM36.292 23.4902L35.157 25.7177L35.157 25.7178L36.292 23.4902ZM39.4541 23.8174V26.3174V23.8174ZM40.1006 23.8174V21.3174V21.3174V23.8174ZM40.3643 23.8447L41.5044 21.6198L41.4992 21.6172L40.3643 23.8447ZM40.4727 23.9531L42.7002 22.8181L42.6977 22.8134L40.4727 23.9531ZM40.5 24.2168H43V24.2168H40.5ZM40.5 32.8906H43H40.5ZM40.2822 34.998L42.5097 36.133L42.51 36.1326L40.2822 34.998ZM39.4082 35.8721L40.5432 38.0996L40.5432 38.0996L39.4082 35.8721ZM37.3008 36.0908V38.5908V36.0908ZM5.7002 36.0908V38.5908V36.0908ZM3.5918 35.8721L2.45641 38.0994L2.45682 38.0996L3.5918 35.8721ZM2.71777 34.998L0.489896 36.1323L0.490257 36.133L2.71777 34.998ZM2.5 32.8906H0H2.5ZM2.5 24.1914H0V24.1914H2.5ZM2.51855 23.9717L0.208122 23.0167L0.206285 23.0212L2.51855 23.9717ZM2.6543 23.8359L1.69935 21.5255L1.69761 21.5262L2.6543 23.8359ZM2.875 23.8174V26.3174V23.8174ZM5.51758 23.5898L6.47216 25.9004L6.47252 25.9003L5.51758 23.5898ZM7.14453 21.9629L9.45496 22.9178L9.45501 22.9177L7.14453 21.9629ZM7.37207 19.3203H9.87207H7.37207ZM7.37207 18.9727H9.87207H7.37207ZM7.29297 17.4141L9.72754 16.8458L9.72744 16.8454L7.29297 17.4141ZM5.05371 15.1748L5.62193 12.7402L5.62191 12.7402L5.05371 15.1748ZM3.49609 15.0967V12.5967V15.0967ZM2.875 15.0967V17.5967V15.0967ZM2.6543 15.0771L1.69659 17.3864L1.69935 17.3876L2.6543 15.0771ZM2.51855 14.9414L0.204754 15.8882L0.208126 15.8964L2.51855 14.9414ZM2.5 14.7217H0H2.5ZM2.5 5.7002H5H2.5ZM2.71777 3.5918L0.490288 2.45676L0.490257 2.45682L2.71777 3.5918ZM3.5918 2.71777L2.45682 0.490257L2.45668 0.490328L3.5918 2.71777ZM5.7002 2.5V5V2.5ZM37.3008 2.5V5C37.5865 5 37.8101 5.00006 38.0031 5.00308C38.1962 5.00611 38.3227 5.01173 38.4106 5.0189C38.5896 5.03351 38.4709 5.04597 38.2735 4.94545L39.4082 2.71777L40.5429 0.490095C39.9178 0.171703 39.3052 0.0752814 38.8173 0.0354679C38.3586 -0.00196695 37.8193 0 37.3008 0V2.5ZM39.4082 2.71777L38.2732 4.94529C38.1789 4.89723 38.1026 4.82082 38.0548 4.72701L40.2822 3.5918L42.5096 2.45658C42.0783 1.6103 41.39 0.921741 40.5432 0.490257L39.4082 2.71777ZM40.2822 3.5918L38.0547 4.72677C37.954 4.52909 37.9665 4.41017 37.9811 4.58951C37.9883 4.67757 37.9939 4.80419 37.9969 4.99743C38 5.19061 38 5.41435 38 5.7002H40.5H43C43 5.18162 43.002 4.64209 42.9646 4.18327C42.9248 3.6954 42.8285 3.08233 42.5097 2.45682L40.2822 3.5918ZM40.5 5.7002H38V14.6963H40.5H43V5.7002H40.5ZM40.5 14.6963H38C38 14.7146 38 14.7264 38 14.7366C37.9999 14.7464 37.9999 14.7496 37.9999 14.7489C37.9999 14.7483 38 14.7395 38.0006 14.7253C38.0012 14.7112 38.0024 14.687 38.0049 14.6558C38.0142 14.5431 38.0495 14.2089 38.2451 13.825L40.4727 14.96L42.7002 16.0949C42.923 15.6575 42.972 15.2615 42.9881 15.0654C43.0019 14.8978 43 14.726 43 14.6963H40.5ZM40.4727 14.96L38.2464 13.8225C38.4511 13.4219 38.7846 13.069 39.2269 12.843L40.3643 15.0693L41.5016 17.2956C42.0376 17.0218 42.4464 16.5917 42.6989 16.0974L40.4727 14.96ZM40.3643 15.0693L39.2293 12.8418C39.6136 12.646 39.9482 12.6108 40.06 12.6016C40.0912 12.5991 40.1153 12.5979 40.1295 12.5973C40.1437 12.5967 40.1524 12.5966 40.1531 12.5966C40.1537 12.5965 40.1506 12.5966 40.1408 12.5966C40.1307 12.5967 40.1188 12.5967 40.1006 12.5967V15.0967V17.5967C40.1305 17.5967 40.3021 17.5986 40.4696 17.5848C40.665 17.5688 41.0614 17.5199 41.4992 17.2969L40.3643 15.0693ZM40.1006 15.0967V12.5967H38.5303V15.0967V17.5967H40.1006V15.0967ZM38.5303 15.0967V12.5967C37.8585 12.5967 37.0923 12.5798 36.4049 12.7401L36.9727 15.1748L37.5404 17.6095C37.4893 17.6214 37.4982 17.6112 37.6713 17.6044C37.8558 17.5971 38.103 17.5967 38.5303 17.5967V15.0967ZM36.9727 15.1748L36.4044 12.7402C34.367 13.2158 32.7741 14.8065 32.2979 16.8455L34.7324 17.4141L37.1669 17.9826C37.21 17.7982 37.3547 17.6528 37.5409 17.6094L36.9727 15.1748ZM34.7324 17.4141L32.2979 16.8458C32.1373 17.5338 32.1543 18.3013 32.1543 18.9727H34.6543H37.1543C37.1543 18.5451 37.1547 18.2977 37.162 18.1129C37.1688 17.9395 37.179 17.9307 37.167 17.9823L34.7324 17.4141ZM34.6543 18.9727H32.1543C32.1543 19.7868 32.1525 20.5457 32.2034 21.1771C32.2563 21.8342 32.3788 22.5774 32.7539 23.3136L34.9814 22.1787L37.209 21.0438C37.2572 21.1384 37.2161 21.1334 37.1872 20.7753C37.1562 20.3914 37.1543 19.8681 37.1543 18.9727H34.6543ZM34.9814 22.1787L32.7539 23.3137C33.2804 24.3469 34.1205 25.1896 35.157 25.7177L36.292 23.4902L37.427 21.2627C37.3346 21.2157 37.2578 21.1395 37.209 21.0437L34.9814 22.1787ZM36.292 23.4902L35.157 25.7178C35.8889 26.0907 36.625 26.2145 37.2799 26.2681C37.9057 26.3193 38.6551 26.3174 39.4541 26.3174V23.8174V21.3174C38.5729 21.3174 38.0622 21.3154 37.6874 21.2847C37.3417 21.2565 37.3368 21.2168 37.427 21.2627L36.292 23.4902ZM39.4541 23.8174V26.3174H40.1006V23.8174V21.3174H39.4541V23.8174ZM40.1006 23.8174V26.3174C40.1188 26.3174 40.1307 26.3174 40.1408 26.3174C40.1506 26.3175 40.1537 26.3175 40.1531 26.3175C40.1524 26.3175 40.1436 26.3174 40.1295 26.3168C40.1153 26.3162 40.0912 26.315 40.06 26.3124C39.9482 26.3032 39.6136 26.2681 39.2293 26.0722L40.3643 23.8447L41.4992 21.6172C41.0614 21.3941 40.665 21.3453 40.4696 21.3292C40.3021 21.3155 40.1305 21.3174 40.1006 21.3174V23.8174ZM40.3643 23.8447L39.2241 26.0696C38.8047 25.8547 38.4628 25.5131 38.2476 25.0929L40.4727 23.9531L42.6977 22.8134C42.4347 22.2998 42.0171 21.8826 41.5044 21.6198L40.3643 23.8447ZM40.4727 23.9531L38.2451 25.0881C38.0493 24.7038 38.0141 24.3693 38.0049 24.2573C38.0024 24.2261 38.0012 24.202 38.0006 24.1879C38 24.1737 37.9999 24.1649 37.9999 24.1643C37.9999 24.1636 37.9999 24.1668 38 24.1766C38 24.1867 38 24.1985 38 24.2168H40.5H43C43 24.1869 43.0019 24.0153 42.9881 23.8478C42.9721 23.6523 42.9232 23.2559 42.7002 22.8181L40.4727 23.9531ZM40.5 24.2168H38V32.8906H40.5H43V24.2168H40.5ZM40.5 32.8906H38C38 33.1763 37.9999 33.3999 37.9969 33.593C37.9939 33.7861 37.9883 33.9125 37.9811 34.0005C37.9665 34.1794 37.954 34.0607 38.0545 33.8635L40.2822 34.998L42.51 36.1326C42.8283 35.5076 42.9247 34.8951 42.9645 34.4072C43.002 33.9485 43 33.4092 43 32.8906H40.5ZM40.2822 34.998L38.0547 33.8631C38.1027 33.7689 38.1792 33.6925 38.2732 33.6446L39.4082 35.8721L40.5432 38.0996C41.3899 37.6682 42.0783 36.9798 42.5097 36.133L40.2822 34.998ZM39.4082 35.8721L38.2732 33.6446C38.4694 33.5446 38.5872 33.5569 38.4089 33.5716C38.3212 33.5788 38.1949 33.5845 38.0022 33.5876C37.8096 33.5907 37.5861 33.5908 37.3008 33.5908V36.0908V38.5908C37.8204 38.5908 38.3596 38.5926 38.8191 38.5548C39.3077 38.5145 39.9192 38.4175 40.5432 38.0996L39.4082 35.8721ZM37.3008 36.0908V33.5908H5.7002V36.0908V38.5908H37.3008V36.0908ZM5.7002 36.0908V33.5908C5.41484 33.5908 5.19121 33.5907 4.99848 33.5876C4.80562 33.5845 4.67918 33.5788 4.59132 33.5716C4.4126 33.5569 4.53038 33.5445 4.72677 33.6446L3.5918 35.8721L2.45682 38.0996C3.08104 38.4176 3.69297 38.5146 4.18146 38.5548C4.64103 38.5926 5.18047 38.5908 5.7002 38.5908V36.0908ZM3.5918 35.8721L4.72719 33.6448C4.8208 33.6925 4.89715 33.7686 4.94529 33.8631L2.71777 34.998L0.490257 36.133C0.92178 36.9799 1.61045 37.6681 2.45641 38.0994L3.5918 35.8721ZM2.71777 34.998L4.94565 33.8638C5.04602 34.0609 5.03354 34.1794 5.01893 34.0004C5.01175 33.9124 5.00613 33.7859 5.00309 33.5928C5.00006 33.3999 5 33.1762 5 32.8906H2.5H0C0 33.4092 -0.00194263 33.9485 0.0355096 34.4072C0.0753372 34.8951 0.17175 35.5074 0.489896 36.1323L2.71777 34.998ZM2.5 32.8906H5V24.1914H2.5H0V32.8906H2.5ZM2.5 24.1914H5C5 24.1755 5 24.1655 5.00002 24.1564C5.00004 24.1477 5.00007 24.1446 5.00007 24.1447C5.00007 24.1447 5 24.1516 4.99963 24.163C4.99927 24.1743 4.9985 24.1939 4.99682 24.2195C4.99095 24.3088 4.96828 24.5878 4.83082 24.9222L2.51855 23.9717L0.206285 23.0212C0.050009 23.4014 0.0180686 23.7324 0.00762033 23.8911C-0.00138474 24.0279 0 24.1704 0 24.1914H2.5ZM2.51855 23.9717L4.82898 24.9266C4.60004 25.4805 4.16099 25.9178 3.61098 26.1456L2.6543 23.8359L1.69761 21.5262C1.02497 21.8048 0.487775 22.3401 0.208126 23.0167L2.51855 23.9717ZM2.6543 23.8359L3.60924 26.1464C3.27081 26.2862 2.98826 26.3086 2.9004 26.3143C2.8749 26.3159 2.85535 26.3167 2.84421 26.317C2.83838 26.3172 2.83392 26.3173 2.83112 26.3174C2.82832 26.3174 2.8267 26.3174 2.82656 26.3175C2.82643 26.3175 2.82731 26.3174 2.82952 26.3174C2.83174 26.3174 2.83481 26.3174 2.83909 26.3174C2.84863 26.3174 2.85863 26.3174 2.875 26.3174V23.8174V21.3174C2.85543 21.3174 2.71227 21.316 2.5761 21.3248C2.41843 21.3351 2.08365 21.3667 1.69935 21.5255L2.6543 23.8359ZM2.875 23.8174V26.3174C3.5384 26.3174 4.16076 26.3187 4.68298 26.2831C5.22751 26.246 5.84248 26.1606 6.47216 25.9004L5.51758 23.5898L4.56299 21.2793C4.64237 21.2465 4.63339 21.2749 4.34288 21.2947C4.03006 21.316 3.60628 21.3174 2.875 21.3174V23.8174ZM5.51758 23.5898L6.47252 25.9003C7.82329 25.342 8.89666 24.2686 9.45496 22.9178L7.14453 21.9629L4.8341 21.0079C4.78335 21.1307 4.68543 21.2287 4.56263 21.2794L5.51758 23.5898ZM7.14453 21.9629L9.45501 22.9177C9.71529 22.2879 9.80068 21.6728 9.8378 21.1283C9.87339 20.6061 9.87207 19.9837 9.87207 19.3203H7.37207H4.87207C4.87207 20.0517 4.87069 20.4754 4.84937 20.7883C4.82957 21.0787 4.8012 21.0876 4.83405 21.0081L7.14453 21.9629ZM7.37207 19.3203H9.87207V18.9727H7.37207H4.87207V19.3203H7.37207ZM7.37207 18.9727H9.87207C9.87207 18.2958 9.88783 17.5326 9.72754 16.8458L7.29297 17.4141L4.8584 17.9823C4.84681 17.9326 4.85702 17.9428 4.86401 18.1154C4.87146 18.2992 4.87207 18.5467 4.87207 18.9727H7.37207ZM7.29297 17.4141L9.72744 16.8454C9.2515 14.8079 7.6606 13.2161 5.62193 12.7402L5.05371 15.1748L4.48549 17.6094C4.6703 17.6525 4.81511 17.7969 4.8585 17.9827L7.29297 17.4141ZM5.05371 15.1748L5.62191 12.7402C4.93407 12.5797 4.16764 12.5967 3.49609 12.5967V15.0967V17.5967C3.9236 17.5967 4.1707 17.597 4.35521 17.6043C4.52815 17.6112 4.53686 17.6214 4.48551 17.6094L5.05371 15.1748ZM3.49609 15.0967V12.5967H2.875V15.0967V17.5967H3.49609V15.0967ZM2.875 15.0967V12.5967C2.86088 12.5967 2.85162 12.5967 2.8443 12.5966C2.83709 12.5966 2.83525 12.5966 2.83671 12.5966C2.83813 12.5966 2.84613 12.5967 2.85861 12.5972C2.87106 12.5977 2.89152 12.5986 2.91776 12.6005C3.01167 12.6072 3.28357 12.6321 3.60924 12.7667L2.6543 15.0771L1.69935 17.3876C2.07089 17.5411 2.39502 17.5758 2.55874 17.5876C2.70202 17.5979 2.84441 17.5967 2.875 17.5967V15.0967ZM2.6543 15.0771L3.612 12.7679C4.16049 12.9953 4.59972 13.4318 4.82898 13.9865L2.51855 14.9414L0.208126 15.8964C0.488066 16.5736 1.02556 17.1081 1.69659 17.3864L2.6543 15.0771ZM2.51855 14.9414L4.83234 13.9946C4.96829 14.3269 4.99092 14.6038 4.9968 14.6928C4.99849 14.7183 4.99926 14.7379 4.99963 14.7492C4.99999 14.7606 5.00007 14.7675 5.00008 14.7677C5.00008 14.7678 5.00004 14.7648 5.00002 14.7563C5 14.7473 5 14.7374 5 14.7217H2.5H0C0 14.7438 -0.00135589 14.8858 0.00770211 15.0228C0.0181849 15.1813 0.0500929 15.5102 0.204768 15.8882L2.51855 14.9414ZM2.5 14.7217H5V5.7002H2.5H0V14.7217H2.5ZM2.5 5.7002H5C5 5.41435 5.00005 5.19061 5.00307 4.99743C5.00609 4.80419 5.0117 4.67757 5.01888 4.58951C5.0335 4.41017 5.04602 4.52909 4.94529 4.72677L2.71777 3.5918L0.490257 2.45682C0.171544 3.08233 0.075177 3.6954 0.0354068 4.18327C-0.00199509 4.64209 0 5.18162 0 5.7002H2.5ZM2.71777 3.5918L4.94526 4.72683C4.89728 4.82098 4.82089 4.89733 4.72691 4.94522L3.5918 2.71777L2.45668 0.490328C1.61019 0.921706 0.921721 1.61008 0.490288 2.45676L2.71777 3.5918ZM3.5918 2.71777L4.72677 4.94529C4.52909 5.04602 4.41017 5.0335 4.58951 5.01888C4.67757 5.0117 4.80419 5.00609 4.99743 5.00307C5.19061 5.00005 5.41435 5 5.7002 5V2.5V0C5.18162 0 4.64209 -0.00199509 4.18327 0.0354068C3.6954 0.075177 3.08233 0.171544 2.45682 0.490257L3.5918 2.71777ZM5.7002 2.5V5H37.3008V2.5V0H5.7002V2.5Z" fill="white"/>
</svg>
