<svg width="39" height="40" viewBox="0 0 39 40" fill="none" xmlns="http://www.w3.org/2000/svg">
<path d="M16.321 3.10899C17.8386 2.47131 19.5094 2.30431 21.1208 2.6295C22.7322 2.95472 24.2116 3.75715 25.3718 4.93419C26.5319 6.11119 27.3207 7.61034 27.6404 9.24083C27.96 10.8713 27.7959 12.561 27.1687 14.0973C26.5414 15.6337 25.479 16.9484 24.114 17.8736C22.8342 18.7412 21.3428 19.23 19.8074 19.2877L19.4998 19.2936C17.297 19.2913 15.186 18.4027 13.6306 16.8248C12.0754 15.2471 11.2021 13.1086 11.2 10.8805L11.2058 10.569C11.2626 9.01586 11.7425 7.50625 12.5964 6.20958C13.5075 4.82627 14.8037 3.74666 16.321 3.10899ZM19.4998 6.10509C18.2556 6.10514 17.0614 6.60684 16.1794 7.50157C15.2972 8.39659 14.7996 9.61168 14.7996 10.8805C14.7996 11.8265 15.0762 12.7512 15.5935 13.5367C16.1108 14.3221 16.8459 14.933 17.7039 15.2936C18.5617 15.654 19.5056 15.7477 20.4158 15.5641C21.326 15.3803 22.1633 14.9266 22.821 14.2594C23.4788 13.592 23.9273 12.7407 24.1091 11.8131C24.291 10.8854 24.1982 9.92379 23.8416 9.0504C23.4849 8.17703 22.881 7.43167 22.1082 6.90782C21.3355 6.38411 20.4276 6.10509 19.4998 6.10509Z" fill="white" stroke="white"/>
<path d="M19.5005 22.25L19.8511 22.2549C23.472 22.3465 26.9269 23.7929 29.4976 26.3076C32.1513 28.9037 33.6457 32.4263 33.6499 36.1025V36.1035C33.6498 36.6331 33.4345 37.1387 33.0552 37.5098C32.6762 37.8804 32.1646 38.0869 31.6333 38.0869C31.102 38.0869 30.5904 37.8805 30.2114 37.5098C29.8321 37.1387 29.6168 36.6331 29.6167 36.1035C29.6167 33.4853 28.5536 30.972 26.6577 29.1172C24.7614 27.2621 22.187 26.2179 19.5005 26.2178C16.8139 26.2178 14.2387 27.262 12.3423 29.1172C10.4465 30.972 9.3833 33.4854 9.3833 36.1035C9.38323 36.6331 9.16789 37.1387 8.78857 37.5098C8.40959 37.8805 7.89799 38.0869 7.3667 38.0869C6.8354 38.0869 6.3238 37.8805 5.94482 37.5098C5.56551 37.1387 5.35017 36.6331 5.3501 36.1035V36.1025L5.35498 35.7588C5.44889 32.2073 6.93152 28.8227 9.50244 26.3076C12.1559 23.7119 15.7516 22.2541 19.4995 22.25H19.5005Z" fill="white" stroke="white"/>
</svg>
