<svg width="27" height="26" viewBox="0 0 27 26" fill="none" xmlns="http://www.w3.org/2000/svg">
<path d="M12.3702 0.697142C12.6656 -0.232476 13.981 -0.232477 14.2763 0.697141L16.7239 8.40127C16.8558 8.81646 17.2414 9.09848 17.677 9.09848H25.6445C26.6078 9.09848 27.0142 10.3266 26.241 10.9012L19.7567 15.7193C19.4141 15.9739 19.2708 16.4179 19.4001 16.8248L21.8677 24.5919C22.1616 25.5171 21.0975 26.2763 20.3182 25.6973L13.9197 20.9429C13.5656 20.6798 13.0809 20.6798 12.7268 20.9429L6.32837 25.6973C5.5491 26.2763 4.48493 25.5171 4.77889 24.5919L7.24648 16.8248C7.37573 16.4179 7.23248 15.9739 6.88985 15.7193L0.405585 10.9012C-0.367603 10.3266 0.0387385 9.09848 1.00201 9.09848H8.96956C9.4052 9.09848 9.79071 8.81646 9.92262 8.40127L12.3702 0.697142Z" fill="#4832AA"/>
</svg>
