<svg width="23" height="23" viewBox="0 0 23 23" fill="none" xmlns="http://www.w3.org/2000/svg">
<rect width="23" height="23" transform="matrix(-1 0 0 1 23 0)" fill="white"/>
<path fill-rule="evenodd" clip-rule="evenodd" d="M18.9268 6.70835C18.9268 4.06198 16.7815 1.91669 14.1351 1.91669H6.70801C4.06164 1.91669 1.91634 4.06199 1.91634 6.70835V14.375C1.91634 17.0214 4.06164 19.1667 6.70801 19.1667H20.1247C20.4769 19.1667 20.8007 18.9735 20.968 18.6636C21.1353 18.3537 21.1191 17.977 20.9259 17.6826L19.3981 15.3545C19.0906 14.8859 18.9268 14.3376 18.9268 13.7771V6.70835ZM14.1351 3.83335C15.7229 3.83335 17.0101 5.12053 17.0101 6.70835V13.7771C17.0101 14.7113 17.2832 15.6251 17.7957 16.4061L18.3495 17.25H6.70801C5.12019 17.25 3.83301 15.9628 3.83301 14.375V6.70835C3.83301 5.12054 5.12019 3.83335 6.70801 3.83335H14.1351Z" fill="#4832AA" stroke="#4832AA" stroke-width="0.5" stroke-linecap="round" stroke-linejoin="round"/>
</svg>
