<svg width="48" height="48" viewBox="0 0 48 48" fill="none" xmlns="http://www.w3.org/2000/svg">
<g clip-path="url(#clip0_278_27)">
<path fill-rule="evenodd" clip-rule="evenodd" d="M24 0C10.746 0 0 10.746 0 24C0 37.254 10.746 48 24 48C37.254 48 48 37.254 48 24C48 10.746 37.254 0 24 0ZM35.124 16.322C34.764 20.116 33.2 29.326 32.406 33.576C32.07 35.376 31.406 35.978 30.766 36.036C29.372 36.164 28.314 35.114 26.964 34.23C24.852 32.846 23.658 31.984 21.608 30.632C19.238 29.07 20.774 28.212 22.124 26.81C22.478 26.442 28.618 20.856 28.738 20.35C28.752 20.286 28.768 20.05 28.626 19.926C28.484 19.802 28.278 19.844 28.13 19.878C27.918 19.926 24.544 22.156 18.006 26.568C17.048 27.226 16.18 27.546 15.402 27.53C14.546 27.512 12.898 27.046 11.672 26.646C10.17 26.158 8.974 25.898 9.078 25.07C9.132 24.638 9.726 24.196 10.862 23.744C17.858 20.696 22.524 18.686 24.858 17.714C31.524 14.942 32.908 14.46 33.812 14.444C34.944 14.428 35.216 15.362 35.124 16.322Z" fill="white"/>
</g>
<defs>
<clipPath id="clip0_278_27">
<rect width="48" height="48" fill="white"/>
</clipPath>
</defs>
</svg>
