<svg width="48" height="48" viewBox="0 0 48 48" fill="none" xmlns="http://www.w3.org/2000/svg">
<g clip-path="url(#clip0_278_30)">
<path d="M44.632 3.368C41.264 0 35.842 0 25 0H23C12.158 0 6.736 0 3.368 3.368C0 6.736 0 12.158 0 23V25C0 35.842 0 41.262 3.368 44.632C6.736 48.002 12.158 48 23 48H25C35.842 48 41.262 48 44.632 44.632C48 41.264 48 35.842 48 25V23C48 12.158 48 6.736 44.632 3.368ZM39.006 34H35.506C34.172 34 33.78 32.936 31.406 30.562C29.328 28.56 28.438 28.3 27.92 28.3C27.214 28.3 27.004 28.5 27.004 29.5V32.638C27.004 33.498 26.73 34 24.504 34C20.796 34 16.72 31.748 13.826 27.596C9.486 21.514 8.3 16.916 8.3 15.99C8.3 15.47 8.5 15 9.5 15H13.002C13.896 15 14.232 15.392 14.568 16.36C16.28 21.346 19.168 25.704 20.354 25.704C20.798 25.704 21.002 25.498 21.002 24.37V19.216C20.872 16.844 19.61 16.648 19.61 15.804C19.61 15.414 19.944 15 20.5 15H26.002C26.744 15 27.002 15.396 27.002 16.286V23.22C27.002 23.96 27.324 24.22 27.546 24.22C27.992 24.22 28.362 23.96 29.178 23.144C31.7 20.326 33.48 15.988 33.48 15.988C33.704 15.468 34.112 14.998 35.004 14.998H38.504C39.562 14.998 39.786 15.542 39.562 16.284C39.116 18.324 34.852 24.33 34.852 24.33C34.48 24.924 34.332 25.22 34.852 25.888C35.224 26.408 36.446 27.446 37.262 28.41C38.766 30.102 39.9 31.528 40.216 32.512C40.508 33.5 40.006 34 39.006 34Z" fill="white"/>
</g>
<defs>
<clipPath id="clip0_278_30">
<rect width="48" height="48" fill="white"/>
</clipPath>
</defs>
</svg>
