<svg width="30" height="27" viewBox="0 0 30 27" fill="none" xmlns="http://www.w3.org/2000/svg">
<path d="M26.7998 0C27.9199 0 28.4804 -0.000213531 28.9082 0.217773C29.2845 0.409516 29.5905 0.715532 29.7822 1.0918C30.0002 1.51962 30 2.08009 30 3.2002V9.58887C30 9.68664 29.9998 9.73601 29.9863 9.77539C29.9613 9.84837 29.904 9.90564 29.8311 9.93066C29.7917 9.94415 29.7423 9.94434 29.6445 9.94434H28.3379C26.7178 9.9697 25.4101 11.2774 25.3848 12.8975C25.3844 12.9209 25.3848 12.9486 25.3848 13.0039C25.3848 13.7705 25.3844 14.1541 25.4541 14.4717C25.705 15.6152 26.5986 16.508 27.7422 16.7588C28.0597 16.8284 28.4428 16.8291 29.209 16.8291H29.6445C29.7423 16.8291 29.7917 16.8293 29.8311 16.8428C29.904 16.8678 29.9613 16.925 29.9863 16.998C29.9998 17.0374 30 17.0861 30 17.1836V23.3184C30 24.438 30 24.998 29.7822 25.4258C29.5905 25.802 29.2844 26.108 28.9082 26.2998C28.4804 26.5178 27.9199 26.5186 26.7998 26.5186H3.2002C2.08009 26.5186 1.51962 26.5178 1.0918 26.2998C0.715624 26.108 0.409464 25.802 0.217773 25.4258C-6.21917e-06 24.998 6.60363e-10 24.438 0 23.3184V17.125C0 17.0824 0.000339759 17.0608 0.00292969 17.043C0.0188188 16.9335 0.104396 16.847 0.213867 16.8311C0.23172 16.8285 0.2533 16.8291 0.295898 16.8291C0.807052 16.8291 1.06312 16.8289 1.27734 16.7979C2.59182 16.607 3.62465 15.5743 3.81543 14.2598C3.84651 14.0455 3.8457 13.7895 3.8457 13.2783V12.8975C3.82034 11.2775 2.51345 9.96993 0.893555 9.94434H0.295898C0.2533 9.94434 0.23172 9.944 0.213867 9.94141C0.104549 9.92542 0.0189381 9.83978 0.00292969 9.73047C0.000340035 9.71262 0 9.69103 0 9.64844V3.2002C0 2.08009 -0.000213531 1.51962 0.217773 1.0918C0.409503 0.715532 0.71554 0.409516 1.0918 0.217773C1.51962 -0.000213531 2.08009 0 3.2002 0H26.7998Z" fill="white"/>
</svg>
