<svg width="18" height="32" viewBox="0 0 18 32" fill="none" xmlns="http://www.w3.org/2000/svg">
<path d="M12.6412 9.2602L3.70574 1.40813C3.09298 0.870844 2.09489 0.862662 1.47266 1.39177C0.850425 1.91815 0.840951 2.78272 1.45371 3.32001L10.3987 11.1803C10.9893 11.693 11.8137 12.4758 12.6539 13.2885C14.2394 14.8349 14.2394 17.1641 12.6539 18.7078C11.8137 19.526 10.9893 20.3087 10.3892 20.8269L1.45371 28.679C0.840951 29.2163 0.850425 30.0809 1.47266 30.6073C1.78219 30.8691 2.18017 31 2.5813 31C2.98875 31 3.39936 30.8636 3.70574 30.5936L12.6318 22.7497C13.2571 22.2124 14.1289 21.3861 15.0196 20.5188C17.6601 17.9441 17.6601 14.0604 15.0196 11.483C14.1289 10.6184 13.2571 9.79204 12.6444 9.26293L12.6412 9.2602Z" fill="#4832AA" stroke="#4832AA" stroke-width="2"/>
</svg>
