<svg width="40" height="38" viewBox="0 0 40 38" fill="none" xmlns="http://www.w3.org/2000/svg">
<path d="M36.9082 2.21778L37.8164 0.435897L37.8162 0.435772L36.9082 2.21778ZM37.7822 3.09181L39.5644 2.18415L39.5642 2.18383L37.7822 3.09181ZM38 5.19923H40H38ZM37.9727 14.3496L39.7543 15.2583L39.7547 15.2576L37.9727 14.3496ZM37.8633 14.459L38.7684 16.2425L38.7713 16.241L37.8633 14.459ZM36.3037 14.4863V16.4863V14.4863ZM34.8057 14.5586L34.3684 12.607L34.3684 12.607L34.8057 14.5586ZM32.5342 16.8301L30.5826 16.3928L30.5826 16.3928L32.5342 16.8301ZM32.4619 18.3281H30.4619H32.4619ZM32.7881 21.4922L31.0059 22.3998L31.0061 22.4002L32.7881 21.4922ZM34.0996 22.8037L33.1916 24.5857L33.1917 24.5858L34.0996 22.8037ZM37.2617 23.1309V25.1309V23.1309ZM37.8633 23.1582L38.7714 21.3762L38.7713 21.3762L37.8633 23.1582ZM37.9727 23.2666L39.7547 22.3586L39.7532 22.3558L37.9727 23.2666ZM38 23.5303H40V23.5303H38ZM37.7822 34.2051L39.5642 35.1132L39.5642 35.1131L37.7822 34.2051ZM36.9082 35.0791L37.8162 36.8611L37.8162 36.8611L36.9082 35.0791ZM5.2002 35.2969V33.2969V35.2969ZM3.0918 35.0791L2.18377 36.8611L2.18382 36.8611L3.0918 35.0791ZM2.21777 34.2051L0.43576 35.1131L0.435847 35.1132L2.21777 34.2051ZM2 23.4854H0V23.4854H2ZM2.01367 23.2998L0.12156 22.6518L0.120667 22.6544L2.01367 23.2998ZM2.16895 23.1436L1.52197 21.2511L1.52093 21.2515L2.16895 23.1436ZM2.35547 23.1309V25.1309V23.1309ZM4.58691 22.9688L5.23446 24.861L5.23493 24.8609L4.58691 22.9688ZM6.45312 21.1026L8.3452 21.7507L8.34524 21.7506L6.45312 21.1026ZM6.54297 16.8301L8.49458 16.3928L8.49458 16.3928L6.54297 16.8301ZM4.27148 14.5586L4.70887 12.607L4.70878 12.607L4.27148 14.5586ZM2.77344 14.4863V12.4863V14.4863ZM2.35547 14.4863V16.4863V14.4863ZM2.16895 14.4727L1.52078 16.3647L1.52093 16.3648L2.16895 14.4727ZM2.01367 14.3174L0.121559 14.9654L0.122535 14.9682L2.01367 14.3174ZM2 5.19923H0H2ZM2.21777 3.09181L0.43576 2.18383L0.435598 2.18415L2.21777 3.09181ZM3.0918 2.21778L2.18382 0.435772L2.18357 0.435897L3.0918 2.21778ZM5.2002 2.00001V4.00001V2.00001ZM34.7998 2.00001V4.00001C35.393 4.00001 35.7177 4.00151 35.9511 4.02054C36.1613 4.03768 36.1156 4.05858 36.0002 3.9998L36.9082 2.21778L37.8162 0.435772C37.273 0.159002 36.7331 0.0710204 36.2761 0.0337652C35.8423 -0.00159526 35.3267 1.14441e-05 34.7998 1.14441e-05V2.00001ZM36.9082 2.21778L36 3.99967L36.0002 3.99979L37.7822 3.09181L39.5642 2.18383C39.1807 1.43109 38.5686 0.819276 37.8164 0.435897L36.9082 2.21778ZM37.7822 3.09181L36 3.99947C35.9414 3.88439 35.9623 3.83886 35.9794 4.04874C35.9985 4.28192 36 4.60635 36 5.19923H38H40C40 4.67246 40.0016 4.15705 39.9662 3.72337C39.9289 3.26639 39.8409 2.72697 39.5644 2.18415L37.7822 3.09181ZM38 5.19923H36V14.0859H38H40V5.19923H38ZM38 14.0859H36C36 14.1252 35.9999 14.1387 35.9998 14.1466C35.9997 14.1546 35.9998 14.1286 36.0033 14.0864C36.01 14.0046 36.0369 13.7434 36.1906 13.4416L37.9727 14.3496L39.7547 15.2576C39.9357 14.9023 39.9762 14.5793 39.9898 14.4141C40.0015 14.2716 40 14.1237 40 14.0859H38ZM37.9727 14.3496L36.191 13.4409C36.3584 13.1127 36.6255 12.845 36.9553 12.677L37.8633 14.459L38.7713 16.241C39.1951 16.0251 39.5389 15.6806 39.7543 15.2583L37.9727 14.3496ZM37.8633 14.459L36.9582 12.6755C37.2588 12.5229 37.5186 12.4963 37.5994 12.4896C37.6414 12.4861 37.6672 12.486 37.6595 12.4862C37.6519 12.4863 37.6384 12.4863 37.5996 12.4863V14.4863V16.4863C37.6385 16.4863 37.7858 16.4878 37.9283 16.4761C38.0926 16.4625 38.4143 16.4222 38.7684 16.2425L37.8633 14.459ZM37.5996 14.4863V12.4863H36.3037V14.4863V16.4863H37.5996V14.4863ZM36.3037 14.4863V12.4863C35.6305 12.4863 34.9631 12.4738 34.3684 12.607L34.8057 14.5586L35.2429 16.5102C35.2357 16.5118 35.2784 16.5007 35.4588 16.4938C35.648 16.4866 35.8968 16.4863 36.3037 16.4863V14.4863ZM34.8057 14.5586L34.3684 12.607C32.4802 13.0301 31.0057 14.5047 30.5826 16.3928L32.5342 16.8301L34.4858 17.2674C34.5704 16.8898 34.8654 16.5948 35.243 16.5102L34.8057 14.5586ZM32.5342 16.8301L30.5826 16.3928C30.4493 16.9875 30.4619 17.6549 30.4619 18.3281H32.4619H34.4619C34.4619 17.9211 34.4622 17.6724 34.4694 17.4832C34.4762 17.3028 34.4874 17.2602 34.4858 17.2674L32.5342 16.8301ZM32.4619 18.3281H30.4619C30.4619 19.1355 30.4602 19.8615 30.509 20.4621C30.5597 21.0859 30.6747 21.7495 31.0059 22.3998L32.7881 21.4922L34.5703 20.5846C34.57 20.584 34.5678 20.5798 34.5642 20.5695C34.5603 20.5587 34.5539 20.5387 34.5463 20.5061C34.5301 20.4376 34.5111 20.3247 34.4959 20.138C34.4633 19.7373 34.4619 19.2022 34.4619 18.3281H32.4619ZM32.7881 21.4922L31.0061 22.4002C31.4854 23.341 32.2508 24.1064 33.1916 24.5857L34.0996 22.8037L35.0076 21.0217C34.8194 20.9258 34.666 20.7724 34.5701 20.5842L32.7881 21.4922ZM34.0996 22.8037L33.1917 24.5858C33.8414 24.9168 34.5043 25.0322 35.1282 25.0832C35.7289 25.1324 36.4545 25.1309 37.2617 25.1309V23.1309V21.1309C36.3888 21.1309 35.8542 21.1293 35.4543 21.0965C35.268 21.0813 35.1552 21.0622 35.0867 21.046C35.0541 21.0384 35.034 21.0319 35.0231 21.028C35.0127 21.0243 35.0083 21.0221 35.0075 21.0217L34.0996 22.8037ZM37.2617 23.1309V25.1309H37.5996V23.1309V21.1309H37.2617V23.1309ZM37.5996 23.1309V25.1309C37.6389 25.1309 37.6524 25.1309 37.6603 25.1311C37.6683 25.1312 37.6423 25.1311 37.6001 25.1276C37.5183 25.1209 37.2571 25.094 36.9553 24.9402L37.8633 23.1582L38.7713 21.3762C38.416 21.1952 38.093 21.1546 37.9277 21.141C37.7853 21.1293 37.6374 21.1309 37.5996 21.1309V23.1309ZM37.8633 23.1582L36.9552 24.9402C36.6406 24.7799 36.3669 24.5192 36.1921 24.1775L37.9727 23.2666L39.7532 22.3558C39.5305 21.9203 39.1798 21.5844 38.7714 21.3762L37.8633 23.1582ZM37.9727 23.2666L36.1906 24.1746C36.0367 23.8724 36.0099 23.611 36.0033 23.5299C35.9998 23.4877 35.9997 23.4618 35.9998 23.4698C35.9999 23.4776 36 23.4911 36 23.5303H38H40C40 23.4924 40.0015 23.3446 39.9898 23.2022C39.9763 23.0376 39.9359 22.7142 39.7547 22.3586L37.9727 23.2666ZM38 23.5303H36V32.0967H38H40V23.5303H38ZM38 32.0967H36C36 32.6899 35.9985 33.0146 35.9795 33.248C35.9623 33.4582 35.9414 33.4125 36.0002 33.2971L37.7822 34.2051L39.5642 35.1131C39.841 34.5699 39.929 34.03 39.9662 33.573C40.0016 33.1392 40 32.6236 40 32.0967H38ZM37.7822 34.2051L36.0003 33.2969L36.0002 33.2971L36.9082 35.0791L37.8162 36.8611C38.5688 36.4776 39.1807 35.8656 39.5642 35.1132L37.7822 34.2051ZM36.9082 35.0791L36.0002 33.2971C36.1156 33.2383 36.1613 33.2592 35.9511 33.2764C35.7177 33.2954 35.393 33.2969 34.7998 33.2969V35.2969V37.2969C35.3267 37.2969 35.8423 37.2985 36.2761 37.2631C36.7331 37.2259 37.273 37.1379 37.8162 36.8611L36.9082 35.0791ZM34.7998 35.2969V33.2969H5.2002V35.2969V37.2969H34.7998V35.2969ZM5.2002 35.2969V33.2969C4.60696 33.2969 4.28233 33.2954 4.04889 33.2764C3.83869 33.2592 3.88441 33.2383 3.99978 33.2971L3.0918 35.0791L2.18382 36.8611C2.72701 37.1379 3.26687 37.2259 3.72389 37.2631C4.15767 37.2985 4.67333 37.2969 5.2002 37.2969V35.2969ZM3.0918 35.0791L3.99983 33.2971L3.9997 33.2969L2.21777 34.2051L0.435847 35.1132C0.819271 35.8656 1.43115 36.4776 2.18377 36.8611L3.0918 35.0791ZM2.21777 34.2051L3.99979 33.2971C4.05857 33.4125 4.03766 33.4582 4.02053 33.248C4.0015 33.0146 4 32.6899 4 32.0967H2H0C0 32.6236 -0.0016067 33.1392 0.0337538 33.573C0.0710089 34.03 0.158991 34.5699 0.43576 35.1131L2.21777 34.2051ZM2 32.0967H4V23.4854H2H0V32.0967H2ZM2 23.4854H4C4 23.459 4.00004 23.45 4.0001 23.4456C4.00015 23.4411 4.00006 23.4596 3.99828 23.4896C3.99489 23.5465 3.98188 23.7246 3.90668 23.9452L2.01367 23.2998L0.120667 22.6544C0.0320585 22.9143 0.0122097 23.1365 0.00533915 23.252C-0.000698805 23.3535 0 23.4566 0 23.4854H2ZM2.01367 23.2998L3.90578 23.9478C3.73501 24.4465 3.3413 24.8561 2.81696 25.0357L2.16895 23.1436L1.52093 21.2515C0.850428 21.4811 0.342392 22.007 0.121562 22.6518L2.01367 23.2998ZM2.16895 23.1436L2.81592 25.036C2.58028 25.1166 2.39012 25.1272 2.34134 25.1296C2.31361 25.131 2.29697 25.131 2.30527 25.1309C2.3146 25.1308 2.3239 25.1309 2.35547 25.1309V23.1309V21.1309C2.33783 21.1309 2.2333 21.13 2.13932 21.1347C2.03155 21.1402 1.79697 21.1571 1.52197 21.2511L2.16895 23.1436ZM2.35547 23.1309V25.1309C3.36567 25.1309 4.36818 25.1575 5.23446 24.861L4.58691 22.9688L3.93937 21.0765C3.94721 21.0738 3.88579 21.0983 3.61856 21.1138C3.33714 21.13 2.96423 21.1309 2.35547 21.1309V23.1309ZM4.58691 22.9688L5.23493 24.8609C6.69653 24.3603 7.84463 23.212 8.3452 21.7507L6.45312 21.1026L4.56105 20.4544C4.46089 20.7468 4.2311 20.9766 3.9389 21.0767L4.58691 22.9688ZM6.45312 21.1026L8.34524 21.7506C8.6421 20.8838 8.61523 19.8803 8.61523 18.8701H6.61523H4.61523C4.61523 19.4794 4.6144 19.8525 4.59818 20.1341C4.58278 20.4015 4.55824 20.4627 4.56101 20.4545L6.45312 21.1026ZM6.61523 18.8701H8.61523V18.3281H6.61523H4.61523V18.8701H6.61523ZM6.61523 18.3281H8.61523C8.61523 17.6549 8.62782 16.9875 8.49458 16.3928L6.54297 16.8301L4.59136 17.2674C4.58975 17.2602 4.6009 17.3028 4.60777 17.4832C4.61497 17.6724 4.61523 17.9212 4.61523 18.3281H6.61523ZM6.54297 16.8301L8.49458 16.3928C8.07149 14.5046 6.59681 13.0301 4.70887 12.607L4.27148 14.5586L3.8341 16.5102C4.21181 16.5948 4.50677 16.8899 4.59136 17.2674L6.54297 16.8301ZM4.27148 14.5586L4.70878 12.607C4.1141 12.4737 3.44664 12.4863 2.77344 12.4863V14.4863V16.4863C3.18042 16.4863 3.42919 16.4866 3.61837 16.4938C3.79873 16.5007 3.84138 16.5118 3.83419 16.5102L4.27148 14.5586ZM2.77344 14.4863V12.4863H2.35547V14.4863V16.4863H2.77344V14.4863ZM2.35547 14.4863V12.4863C2.32867 12.4863 2.3195 12.4863 2.31464 12.4862C2.30972 12.4862 2.32797 12.4863 2.35759 12.488C2.41258 12.4912 2.59319 12.5039 2.81696 12.5806L2.16895 14.4727L1.52093 16.3648C1.78408 16.4549 2.00907 16.4744 2.12303 16.4811C2.22409 16.4871 2.32733 16.4863 2.35547 16.4863V14.4863ZM2.16895 14.4727L2.81711 12.5806C3.33069 12.7565 3.73018 13.1591 3.90481 13.6665L2.01367 14.3174L0.122535 14.9682C0.347345 15.6215 0.8613 16.1388 1.52078 16.3647L2.16895 14.4727ZM2.01367 14.3174L3.90578 13.6694C3.98242 13.8932 3.99511 14.0738 3.99834 14.1287C4.00008 14.1584 4.00015 14.1766 4.0001 14.1717C4.00004 14.1668 4 14.1577 4 14.1309H2H0C0 14.159 -0.000716209 14.2623 0.00522053 14.3633C0.0119147 14.4773 0.0314382 14.7023 0.121562 14.9654L2.01367 14.3174ZM2 14.1309H4V5.19923H2H0V14.1309H2ZM2 5.19923H4C4 4.60635 4.00153 4.28192 4.02057 4.04874C4.03769 3.83886 4.05856 3.88439 3.99995 3.99947L2.21777 3.09181L0.435598 2.18415C0.159138 2.72697 0.0711151 3.26639 0.03382 3.72337C-0.00157309 4.15705 0 4.67246 0 5.19923H2ZM2.21777 3.09181L3.99979 3.99979L4.00002 3.99967L3.0918 2.21778L2.18357 0.435897C1.4314 0.819276 0.819301 1.43109 0.43576 2.18383L2.21777 3.09181ZM3.0918 2.21778L3.99978 3.9998C3.88441 4.05858 3.83869 4.03768 4.04889 4.02054C4.28233 4.00151 4.60696 4.00001 5.2002 4.00001V2.00001V1.14441e-05C4.67333 1.14441e-05 4.15767 -0.00159526 3.72389 0.0337652C3.26687 0.0710204 2.72701 0.159002 2.18382 0.435772L3.0918 2.21778ZM5.2002 2.00001V4.00001H34.7998V2.00001V1.14441e-05H5.2002V2.00001Z" fill="white"/>
<path d="M24 15.862V21.9489" stroke="white" stroke-width="4" stroke-linecap="round"/>
<path d="M24 3.86196V8.93443" stroke="white" stroke-width="4" stroke-linecap="round"/>
<path d="M24 28.862V33.9344" stroke="white" stroke-width="4" stroke-linecap="round"/>
</svg>
