<svg width="40" height="44" viewBox="0 0 40 44" fill="none" xmlns="http://www.w3.org/2000/svg">
<path d="M19.9999 10.9058C18.6814 10.9058 17.3924 11.3322 16.2961 12.1311C15.1998 12.93 14.3453 14.0655 13.8407 15.394C13.3361 16.7225 13.2041 18.1844 13.4614 19.5947C13.7186 21.0051 14.3535 22.3006 15.2859 23.3174C16.2182 24.3342 17.4061 25.0266 18.6993 25.3072C19.9925 25.5877 21.333 25.4437 22.5511 24.8934C23.7693 24.3431 24.8105 23.4113 25.5431 22.2156C26.2756 21.02 26.6666 19.6143 26.6666 18.1763C26.6666 16.2481 25.9642 14.3988 24.714 13.0353C23.4637 11.6718 21.768 10.9058 19.9999 10.9058ZM19.9999 21.8116C19.3407 21.8116 18.6962 21.5984 18.148 21.1989C17.5999 20.7995 17.1726 20.2317 16.9203 19.5675C16.668 18.9032 16.602 18.1723 16.7306 17.4671C16.8593 16.762 17.1767 16.1142 17.6429 15.6058C18.1091 15.0974 18.703 14.7512 19.3496 14.6109C19.9962 14.4706 20.6664 14.5426 21.2755 14.8178C21.8846 15.0929 22.4052 15.5589 22.7715 16.1567C23.1378 16.7545 23.3333 17.4573 23.3333 18.1763C23.3333 19.1405 22.9821 20.0651 22.3569 20.7469C21.7318 21.4286 20.884 21.8116 19.9999 21.8116Z" fill="white" stroke="white" stroke-width="0.5"/>
<path d="M20 1.77898C24.0462 1.77898 27.9256 3.41895 30.7852 6.33562C33.6444 9.25211 35.25 13.2064 35.25 17.3288C35.25 19.315 34.5109 21.8242 33.0732 24.8229C31.6334 27.8262 29.4821 31.3422 26.6348 35.3483C25.8802 36.4215 24.8838 37.2954 23.7295 37.8962C22.5749 38.4971 21.2957 38.8072 19.999 38.8005V38.7995C18.703 38.8059 17.4245 38.4968 16.2705 37.8962C15.1162 37.2954 14.1198 36.4215 13.3652 35.3483L12.3301 33.8688C9.99121 30.471 8.18667 27.4508 6.92676 24.8229C5.4891 21.8242 4.75001 19.315 4.75 17.3288C4.75 13.2064 6.35563 9.25211 9.21484 6.33562C12.0744 3.41895 15.9538 1.77898 20 1.77898ZM19.4307 5.6159C16.5918 5.76266 13.8979 6.97759 11.877 9.03875C9.72118 11.2376 8.50748 14.22 8.50391 17.3317C8.50391 18.7996 9.18668 20.9343 10.5303 23.6257C11.8693 26.3079 13.849 29.5131 16.4072 33.112L16.5674 33.3239C16.9557 33.8067 17.438 34.2029 17.9844 34.487C18.6088 34.8116 19.2996 34.9811 20 34.9811C20.7004 34.9811 21.3912 34.8116 22.0156 34.487C22.6399 34.1623 23.1804 33.6913 23.5928 33.112L24.5254 31.7809C26.6363 28.7199 28.2981 25.9725 29.4697 23.6257C30.8133 20.9343 31.4961 18.7996 31.4961 17.3317C31.4925 14.22 30.2788 11.2376 28.123 9.03875C25.9675 6.84023 23.0462 5.6039 20 5.60027L19.4307 5.6159Z" fill="white" stroke="white" stroke-width="0.5"/>
</svg>
