<svg width="34" height="34" viewBox="0 0 34 34" fill="none" xmlns="http://www.w3.org/2000/svg">
<path d="M22.8026 8.89981L20.6744 7.76795C20.2919 7.56453 19.8234 7.69756 19.6279 8.06508L19.274 8.73054L18.5662 10.0615L17.1505 12.7233L14.488 17.7295C14.379 17.9344 14.3493 18.173 14.4042 18.4027L15.4411 22.7413" stroke="#4832AA" stroke-width="2" stroke-linecap="round"/>
<path d="M17.6069 19.4623C18.1624 19.5338 18.6571 19.1529 18.7117 18.6117C18.7664 18.0705 18.3604 17.5739 17.8049 17.5024L17.7059 18.4824L17.6069 19.4623ZM17.6073 18.4697L17.5083 19.4497L17.5083 19.4497L17.6073 18.4697ZM14.3189 18.0469L14.2199 19.0269L17.5083 19.4497L17.6073 18.4697L17.7063 17.4898L14.4179 17.067L14.3189 18.0469ZM17.6073 18.4697L17.5083 19.4497L17.6069 19.4623L17.7059 18.4824L17.8049 17.5024L17.7063 17.4898L17.6073 18.4697Z" fill="#4832AA"/>
<path d="M22.8027 8.89984L24.9309 10.0317C25.3134 10.2351 25.465 10.698 25.2695 11.0655L24.9156 11.7309L24.2078 13.0619L22.7921 15.7237L20.1296 20.7299C20.0206 20.9348 19.8394 21.0928 19.6182 21.1757L15.4412 22.7413" stroke="#4832AA" stroke-width="2" stroke-linecap="round"/>
<path d="M16.9489 19.1123C16.5791 18.6917 16.6184 18.0686 17.0365 17.7207C17.4547 17.3728 18.0935 17.4318 18.4632 17.8525L17.7061 18.4824L16.9489 19.1123ZM17.7717 18.5571L17.0145 19.187L17.0145 19.187L17.7717 18.5571ZM19.9605 21.0473L19.2033 21.6773L17.0145 19.187L17.7717 18.5571L18.5288 17.9272L20.7177 20.4174L19.9605 21.0473ZM17.7717 18.5571L17.0145 19.187L16.9489 19.1123L17.7061 18.4824L18.4632 17.8525L18.5288 17.9272L17.7717 18.5571Z" fill="#4832AA"/>
<path d="M8.06596 25.71L10.3323 24.0127C10.8866 23.5975 11.6338 23.5179 12.296 23.8034L16.549 25.6371C16.983 25.8242 17.4614 25.8572 17.902 25.7306L20.5606 24.9665C20.9422 24.8569 21.3535 24.8666 21.7408 24.9944L25.1318 26.1136" stroke="#4832AA" stroke-width="2" stroke-linecap="round"/>
</svg>
