<svg width="26" height="33" viewBox="0 0 26 33" fill="none" xmlns="http://www.w3.org/2000/svg">
<path d="M3.5998 32.1299V-0.000119269H13.8598C17.9998 -0.000119269 21.0148 0.839881 22.9048 2.51988C24.8248 4.19988 25.7848 6.50988 25.7848 9.44988C25.7848 11.1899 25.3948 12.8249 24.6148 14.3549C23.8348 15.8849 22.5298 17.1149 20.6998 18.0449C18.8998 18.9749 16.4398 19.4399 13.3198 19.4399H10.3948V32.1299H3.5998ZM-0.000195281 27.3149V22.9499H17.3248V27.3149H-0.000195281ZM-0.000195281 19.4399L-0.000195281 13.8599H13.1848V19.4399H-0.000195281ZM12.6448 13.8599C13.9348 13.8599 15.0448 13.7249 15.9748 13.4549C16.9048 13.1549 17.6248 12.6899 18.1348 12.0599C18.6448 11.4299 18.8998 10.6349 18.8998 9.67488C18.8998 8.29488 18.4648 7.27488 17.5948 6.61488C16.7248 5.92488 15.3598 5.57988 13.4998 5.57988H10.3948V13.8599H12.6448Z" fill="#4832AA"/>
</svg>
